# xmcd
#
# Track frame offsets:
#	150
#	13447
#	27242
#	40577
#	54452
#	68337
#	79212
#	91397
#	102745
#	119380
#
# Disc length: 1766 seconds
#
# Revision: 2
# Processed by: cddbd v1.5.1PL0 Copyright (c) Steve Scherf et al.
# Submitted via: EasyCDDAExtractor 7.0.5.1
#
DISCID=7e06e40a
DTITLE=Tanya Tucker - Tanya Tucker's Greatest Hits
DYEAR=1975
DGENRE=Country
TTITLE0=Delta Dawn
TTITLE1=Blood Red And Goin' Down
TTITLE2=The Jamestown Ferry
TTITLE3=What's Your Mama's Name
TTITLE4=I Believe The South Is Gonna Rise Again
TTITLE5=Would You Lay With Me (In A Field Of Stone)
TTITLE6=Love's The Answer
TTITLE7=Rainy Girl
TTITLE8=No Man's Land
TTITLE9=The Man That Turned My Mama On
EXTD=
EXTT0=
EXTT1=
EXTT2=
EXTT3=
EXTT4=
EXTT5=
EXTT6=
EXTT7=
EXTT8=
EXTT9=
PLAYORDER=
